<svg width="1029" height="375" viewBox="0 0 1029 375" fill="none" xmlns="http://www.w3.org/2000/svg">
<path d="M430.34 30.9672L366.431 70.5303L326.36 312.981L374.8 352.544H229.735L255.857 326.422L225.677 130.129L185.1 337.328L227.199 370.551L80.8663 362.942L130.067 324.901L58.5487 67.7406L0.725668 39.3364L180.028 9.15682L129.052 46.4374L160.246 287.113L203.36 114.658L169.122 90.0583L301.507 73.0664L257.379 108.318L289.08 269.36L331.686 58.3571L283.247 20.5692L430.34 30.9672ZM426.536 239.688C426.536 220.752 429.495 203.253 435.413 187.191C441.499 170.96 449.868 156.927 460.52 145.092C471.341 133.256 484.106 124.042 498.815 117.448C513.693 110.685 529.924 107.304 547.508 107.304C564.584 107.304 580.224 110.516 594.426 116.941C608.628 123.197 620.97 132.073 631.453 143.57C641.935 155.067 650.304 168.846 656.56 184.908C662.816 200.97 666.535 218.723 667.719 238.166C668.903 258.962 666.705 277.814 661.125 294.721C655.715 311.459 647.684 325.746 637.032 337.581C626.381 349.247 613.616 358.293 598.737 364.718C584.028 371.142 568.05 374.355 550.805 374.355C534.236 374.355 518.427 371.396 503.38 365.478C488.502 359.392 475.314 350.6 463.817 339.103C452.489 327.606 443.444 313.573 436.681 297.004C429.918 280.266 426.536 261.16 426.536 239.688ZM488.924 243.999C488.924 258.878 491.038 272.319 495.264 284.323C499.491 296.327 505.155 306.556 512.256 315.01C519.357 323.295 527.557 329.719 536.856 334.284C546.155 338.849 555.962 341.132 566.275 341.132C576.589 341.132 586.226 338.934 595.187 334.538C604.148 329.973 611.925 323.633 618.519 315.517C625.113 307.233 630.269 297.342 633.989 285.845C637.709 274.348 639.568 261.583 639.568 247.55C639.568 233.686 637.709 220.667 633.989 208.494C630.269 196.152 625.028 185.416 618.265 176.286C611.671 167.156 603.809 159.97 594.679 154.729C585.549 149.487 575.574 146.867 564.753 146.867C555.116 146.867 545.733 149.065 536.603 153.461C527.642 157.857 519.611 164.281 512.51 172.735C505.409 181.02 499.66 191.164 495.264 203.168C491.038 215.172 488.924 228.783 488.924 243.999ZM754.2 335.299L804.922 355.588L677.863 368.014L723.513 332.255L715.651 58.3571L657.067 32.9961L785.394 16.0043L754.2 335.299ZM894.953 163.351V170.706C894.953 185.416 894.784 199.618 894.446 213.313C894.108 226.838 893.685 240.195 893.178 253.383C892.84 266.571 892.502 279.589 892.164 292.439C891.825 305.288 891.572 318.222 891.403 331.241L949.987 363.957H813.545L859.194 332.763C855.475 298.61 852.516 267.67 850.318 239.942C848.289 212.045 846.767 188.628 845.753 169.692L808.726 173.749L843.724 118.209C844.908 102.316 847.359 87.6913 851.079 74.3345C854.798 60.8086 860.04 49.1426 866.803 39.3364C873.735 29.5301 882.357 21.9218 892.671 16.5115C902.984 10.9321 915.411 8.14238 929.951 8.14238C935.024 8.14238 940.265 8.6496 945.675 9.66403C951.085 10.5094 956.327 11.862 961.399 13.7218C966.64 15.5816 971.543 17.9486 976.108 20.8229C980.673 23.6971 984.477 27.0786 987.521 30.9672L1028.61 0.787698L988.535 102.232C988.197 91.9181 986.844 83.1263 984.477 75.8561C982.279 68.4169 979.49 62.2458 976.108 57.3426C972.896 52.4395 969.345 48.6354 965.457 45.9302C961.568 43.056 957.933 40.9426 954.551 39.59C951.17 38.0683 948.296 37.1384 945.929 36.8003C943.562 36.293 942.209 36.0394 941.871 36.0394C933.755 36.5467 926.993 39.1673 921.582 43.9013C916.172 48.6354 911.691 55.1447 908.141 63.4293C904.759 71.7139 902.139 81.6046 900.279 93.1016C898.419 104.429 896.982 116.941 895.968 130.636H988.535L969.768 153.968L894.953 163.351Z" fill="url(#paint0_radial_11_23)"/>
<defs>
<radialGradient id="paint0_radial_11_23" cx="0" cy="0" r="1" gradientUnits="userSpaceOnUse" gradientTransform="translate(407 196) scale(890 1509.13)">
<stop stop-color="white"/>
<stop offset="1" stop-color="white" stop-opacity="0"/>
</radialGradient>
</defs>
</svg>
